<?xml version="1.0" encoding="UTF-8" standalone="no"?><svg xmlns="http://www.w3.org/2000/svg" xmlns:xlink="http://www.w3.org/1999/xlink" contentScriptType="application/ecmascript" contentStyleType="text/css" height="908px" preserveAspectRatio="none" style="width:1492px;height:908px;" version="1.1" viewBox="0 0 1492 908" width="1492px" zoomAndPan="magnify"><defs><filter height="300%" id="f17k0yf6bxxlc7" width="300%" x="-1" y="-1"><feGaussianBlur result="blurOut" stdDeviation="2.0"/><feColorMatrix in="blurOut" result="blurOut2" type="matrix" values="0 0 0 0 0 0 0 0 0 0 0 0 0 0 0 0 0 0 .4 0"/><feOffset dx="4.0" dy="4.0" in="blurOut2" result="blurOut3"/><feBlend in="SourceGraphic" in2="blurOut3" mode="normal"/></filter></defs><g><!--MD5=[18aa53e380567176bdb7d8f55004763e]
cluster Pages--><polygon fill="#FFFFFF" filter="url(#f17k0yf6bxxlc7)" points="743,531,791,531,798,553.4883,1287,553.4883,1287,901,743,901,743,531" style="stroke:#000000;stroke-width:1.5;"/><line style="stroke:#000000;stroke-width:1.5;" x1="743" x2="798" y1="553.4883" y2="553.4883"/><text fill="#000000" font-family="sans-serif" font-size="14" font-weight="bold" lengthAdjust="spacing" textLength="42" x="747" y="546.5352">Pages</text><!--MD5=[c33db22cd91d622c105bbe7bf67b0931]
cluster Components--><polygon fill="#FFFFFF" filter="url(#f17k0yf6bxxlc7)" points="16,303,113,303,120,325.4883,1475,325.4883,1475,400,16,400,16,303" style="stroke:#000000;stroke-width:1.5;"/><line style="stroke:#000000;stroke-width:1.5;" x1="16" x2="120" y1="325.4883" y2="325.4883"/><text fill="#000000" font-family="sans-serif" font-size="14" font-weight="bold" lengthAdjust="spacing" textLength="91" x="20" y="318.5352">Components</text><!--MD5=[1702e4a1dd780bb81ca70d86a23b9c79]
cluster Animations--><polygon fill="#FFFFFF" filter="url(#f17k0yf6bxxlc7)" points="609,6,698,6,705,28.4883,922,28.4883,922,119,609,119,609,6" style="stroke:#000000;stroke-width:1.5;"/><line style="stroke:#000000;stroke-width:1.5;" x1="609" x2="705" y1="28.4883" y2="28.4883"/><text fill="#000000" font-family="sans-serif" font-size="14" font-weight="bold" lengthAdjust="spacing" textLength="83" x="613" y="21.5352">Animations</text><!--MD5=[b8432cb0683c68af8c1e984afdd470a0]
entity MainPage--><rect fill="#FEFECE" filter="url(#f17k0yf6bxxlc7)" height="46.4883" style="stroke:#A80036;stroke-width:1.5;" width="106" x="768" y="839"/><rect fill="#FEFECE" height="10" style="stroke:#A80036;stroke-width:1.5;" width="15" x="854" y="844"/><rect fill="#FEFECE" height="2" style="stroke:#A80036;stroke-width:1.5;" width="4" x="852" y="846"/><rect fill="#FEFECE" height="2" style="stroke:#A80036;stroke-width:1.5;" width="4" x="852" y="850"/><text fill="#000000" font-family="sans-serif" font-size="14" lengthAdjust="spacing" textLength="66" x="783" y="872.5352">MainPage</text><!--MD5=[ffea587f3cf4b1c5d29181772ae5ecc4]
entity CategoryPage--><rect fill="#FEFECE" filter="url(#f17k0yf6bxxlc7)" height="46.4883" style="stroke:#A80036;stroke-width:1.5;" width="135" x="1135.5" y="566"/><rect fill="#FEFECE" height="10" style="stroke:#A80036;stroke-width:1.5;" width="15" x="1250.5" y="571"/><rect fill="#FEFECE" height="2" style="stroke:#A80036;stroke-width:1.5;" width="4" x="1248.5" y="573"/><rect fill="#FEFECE" height="2" style="stroke:#A80036;stroke-width:1.5;" width="4" x="1248.5" y="577"/><text fill="#000000" font-family="sans-serif" font-size="14" lengthAdjust="spacing" textLength="95" x="1150.5" y="599.5352">CategoryPage</text><!--MD5=[47fb42a01639776ef5e56a6bdc8f4391]
entity ChosenCardsPage--><rect fill="#FEFECE" filter="url(#f17k0yf6bxxlc7)" height="46.4883" style="stroke:#A80036;stroke-width:1.5;" width="165" x="935.5" y="566"/><rect fill="#FEFECE" height="10" style="stroke:#A80036;stroke-width:1.5;" width="15" x="1080.5" y="571"/><rect fill="#FEFECE" height="2" style="stroke:#A80036;stroke-width:1.5;" width="4" x="1078.5" y="573"/><rect fill="#FEFECE" height="2" style="stroke:#A80036;stroke-width:1.5;" width="4" x="1078.5" y="577"/><text fill="#000000" font-family="sans-serif" font-size="14" lengthAdjust="spacing" textLength="125" x="950.5" y="599.5352">ChosenCardsPage</text><!--MD5=[1f096a03be07def0eebd75cb3f59050a]
entity AnimationPage--><rect fill="#FEFECE" filter="url(#f17k0yf6bxxlc7)" height="46.4883" style="stroke:#A80036;stroke-width:1.5;" width="144" x="759" y="733"/><rect fill="#FEFECE" height="10" style="stroke:#A80036;stroke-width:1.5;" width="15" x="883" y="738"/><rect fill="#FEFECE" height="2" style="stroke:#A80036;stroke-width:1.5;" width="4" x="881" y="740"/><rect fill="#FEFECE" height="2" style="stroke:#A80036;stroke-width:1.5;" width="4" x="881" y="744"/><text fill="#000000" font-family="sans-serif" font-size="14" lengthAdjust="spacing" textLength="104" x="774" y="766.5352">AnimationPage</text><!--MD5=[8ad9cc6715e9f28e5bc4633824140cda]
entity NotFoundPage--><rect fill="#FEFECE" filter="url(#f17k0yf6bxxlc7)" height="46.4883" style="stroke:#A80036;stroke-width:1.5;" width="141" x="759.5" y="566"/><rect fill="#FEFECE" height="10" style="stroke:#A80036;stroke-width:1.5;" width="15" x="880.5" y="571"/><rect fill="#FEFECE" height="2" style="stroke:#A80036;stroke-width:1.5;" width="4" x="878.5" y="573"/><rect fill="#FEFECE" height="2" style="stroke:#A80036;stroke-width:1.5;" width="4" x="878.5" y="577"/><text fill="#000000" font-family="sans-serif" font-size="14" lengthAdjust="spacing" textLength="101" x="774.5" y="599.5352">NotFoundPage</text><!--MD5=[58ee83f62274f6b443fadd1c31578d82]
entity AnimationsPreview--><rect fill="#FEFECE" filter="url(#f17k0yf6bxxlc7)" height="46.4883" style="stroke:#A80036;stroke-width:1.5;" width="170" x="532" y="338"/><rect fill="#FEFECE" height="10" style="stroke:#A80036;stroke-width:1.5;" width="15" x="682" y="343"/><rect fill="#FEFECE" height="2" style="stroke:#A80036;stroke-width:1.5;" width="4" x="680" y="345"/><rect fill="#FEFECE" height="2" style="stroke:#A80036;stroke-width:1.5;" width="4" x="680" y="349"/><text fill="#000000" font-family="sans-serif" font-size="14" lengthAdjust="spacing" textLength="130" x="547" y="371.5352">AnimationsPreview</text><!--MD5=[421c0c28c3c162af05b6849f8e632b78]
entity Card--><rect fill="#FEFECE" filter="url(#f17k0yf6bxxlc7)" height="46.4883" style="stroke:#A80036;stroke-width:1.5;" width="73" x="1209.5" y="338"/><rect fill="#FEFECE" height="10" style="stroke:#A80036;stroke-width:1.5;" width="15" x="1262.5" y="343"/><rect fill="#FEFECE" height="2" style="stroke:#A80036;stroke-width:1.5;" width="4" x="1260.5" y="345"/><rect fill="#FEFECE" height="2" style="stroke:#A80036;stroke-width:1.5;" width="4" x="1260.5" y="349"/><text fill="#000000" font-family="sans-serif" font-size="14" lengthAdjust="spacing" textLength="33" x="1224.5" y="371.5352">Card</text><!--MD5=[ddb96ac54044a1725bcdb12a41f551f6]
entity CardContainer--><rect fill="#FEFECE" filter="url(#f17k0yf6bxxlc7)" height="46.4883" style="stroke:#A80036;stroke-width:1.5;" width="141" x="1317.5" y="338"/><rect fill="#FEFECE" height="10" style="stroke:#A80036;stroke-width:1.5;" width="15" x="1438.5" y="343"/><rect fill="#FEFECE" height="2" style="stroke:#A80036;stroke-width:1.5;" width="4" x="1436.5" y="345"/><rect fill="#FEFECE" height="2" style="stroke:#A80036;stroke-width:1.5;" width="4" x="1436.5" y="349"/><text fill="#000000" font-family="sans-serif" font-size="14" lengthAdjust="spacing" textLength="101" x="1332.5" y="371.5352">CardContainer</text><!--MD5=[7360478beb8e2d0a5e638b0f00e60bba]
entity Character--><rect fill="#FEFECE" filter="url(#f17k0yf6bxxlc7)" height="46.4883" style="stroke:#A80036;stroke-width:1.5;" width="107" x="141.5" y="338"/><rect fill="#FEFECE" height="10" style="stroke:#A80036;stroke-width:1.5;" width="15" x="228.5" y="343"/><rect fill="#FEFECE" height="2" style="stroke:#A80036;stroke-width:1.5;" width="4" x="226.5" y="345"/><rect fill="#FEFECE" height="2" style="stroke:#A80036;stroke-width:1.5;" width="4" x="226.5" y="349"/><text fill="#000000" font-family="sans-serif" font-size="14" lengthAdjust="spacing" textLength="67" x="156.5" y="371.5352">Character</text><!--MD5=[8b9d07f6c1a5e983bf2ce53ee6c4decb]
entity FormFieldAnimationPage--><rect fill="#FEFECE" filter="url(#f17k0yf6bxxlc7)" height="46.4883" style="stroke:#A80036;stroke-width:1.5;" width="213" x="283.5" y="338"/><rect fill="#FEFECE" height="10" style="stroke:#A80036;stroke-width:1.5;" width="15" x="476.5" y="343"/><rect fill="#FEFECE" height="2" style="stroke:#A80036;stroke-width:1.5;" width="4" x="474.5" y="345"/><rect fill="#FEFECE" height="2" style="stroke:#A80036;stroke-width:1.5;" width="4" x="474.5" y="349"/><text fill="#000000" font-family="sans-serif" font-size="14" lengthAdjust="spacing" textLength="173" x="298.5" y="371.5352">FormFieldAnimationPage</text><!--MD5=[45d8db795700329c6183ac1ec4410fdb]
entity LinkButton--><rect fill="#FEFECE" filter="url(#f17k0yf6bxxlc7)" height="46.4883" style="stroke:#A80036;stroke-width:1.5;" width="113" x="737.5" y="338"/><rect fill="#FEFECE" height="10" style="stroke:#A80036;stroke-width:1.5;" width="15" x="830.5" y="343"/><rect fill="#FEFECE" height="2" style="stroke:#A80036;stroke-width:1.5;" width="4" x="828.5" y="345"/><rect fill="#FEFECE" height="2" style="stroke:#A80036;stroke-width:1.5;" width="4" x="828.5" y="349"/><text fill="#000000" font-family="sans-serif" font-size="14" lengthAdjust="spacing" textLength="73" x="752.5" y="371.5352">LinkButton</text><!--MD5=[8aa4c700cf7fc8edf012b75da46ab831]
entity LinkToPage--><rect fill="#FEFECE" filter="url(#f17k0yf6bxxlc7)" height="46.4883" style="stroke:#A80036;stroke-width:1.5;" width="119" x="1055.5" y="338"/><rect fill="#FEFECE" height="10" style="stroke:#A80036;stroke-width:1.5;" width="15" x="1154.5" y="343"/><rect fill="#FEFECE" height="2" style="stroke:#A80036;stroke-width:1.5;" width="4" x="1152.5" y="345"/><rect fill="#FEFECE" height="2" style="stroke:#A80036;stroke-width:1.5;" width="4" x="1152.5" y="349"/><text fill="#000000" font-family="sans-serif" font-size="14" lengthAdjust="spacing" textLength="79" x="1070.5" y="371.5352">LinkToPage</text><!--MD5=[6189534b01dac4062fc6edf21ccd2228]
entity Logo--><rect fill="#FEFECE" filter="url(#f17k0yf6bxxlc7)" height="46.4883" style="stroke:#A80036;stroke-width:1.5;" width="74" x="32" y="338"/><rect fill="#FEFECE" height="10" style="stroke:#A80036;stroke-width:1.5;" width="15" x="86" y="343"/><rect fill="#FEFECE" height="2" style="stroke:#A80036;stroke-width:1.5;" width="4" x="84" y="345"/><rect fill="#FEFECE" height="2" style="stroke:#A80036;stroke-width:1.5;" width="4" x="84" y="349"/><text fill="#000000" font-family="sans-serif" font-size="14" lengthAdjust="spacing" textLength="34" x="47" y="371.5352">Logo</text><!--MD5=[58104528bdf69838f0c8bdf1d7df6752]
entity TopContainer--><rect fill="#FEFECE" filter="url(#f17k0yf6bxxlc7)" height="46.4883" style="stroke:#A80036;stroke-width:1.5;" width="135" x="885.5" y="338"/><rect fill="#FEFECE" height="10" style="stroke:#A80036;stroke-width:1.5;" width="15" x="1000.5" y="343"/><rect fill="#FEFECE" height="2" style="stroke:#A80036;stroke-width:1.5;" width="4" x="998.5" y="345"/><rect fill="#FEFECE" height="2" style="stroke:#A80036;stroke-width:1.5;" width="4" x="998.5" y="349"/><text fill="#000000" font-family="sans-serif" font-size="14" lengthAdjust="spacing" textLength="95" x="900.5" y="371.5352">TopContainer</text><!--MD5=[02f9af0b91dc88f6b9a032fe514ea09e]
entity All the animation components--><rect fill="#FEFECE" filter="url(#f17k0yf6bxxlc7)" height="46.4883" style="stroke:#A80036;stroke-width:1.5;" width="246" x="652" y="49"/><rect fill="#FEFECE" height="10" style="stroke:#A80036;stroke-width:1.5;" width="15" x="878" y="54"/><rect fill="#FEFECE" height="2" style="stroke:#A80036;stroke-width:1.5;" width="4" x="876" y="56"/><rect fill="#FEFECE" height="2" style="stroke:#A80036;stroke-width:1.5;" width="4" x="876" y="60"/><text fill="#000000" font-family="sans-serif" font-size="14" lengthAdjust="spacing" textLength="206" x="667" y="82.5352">All the animation components</text><!--MD5=[f0ee0314bcc312a539bbae2cacbb4a33]
link MainPage to ChosenCardsPage--><path d="M854.61,838.83 C875.59,823.78 902.1,802.41 921,779 C962.46,727.64 993.36,655.72 1008.2,617.09 " fill="none" id="MainPage-to-ChosenCardsPage" style="stroke:#A80036;stroke-width:1.0;"/><polygon fill="#A80036" points="1010.1,612.09,1003.1501,619.0685,1008.3147,616.7604,1010.6227,621.925,1010.1,612.09" style="stroke:#A80036;stroke-width:1.0;"/><!--MD5=[eec0504bf8a7c648fb7e665e07d96d46]
link CategoryPage to ChosenCardsPage--><path d="M1135.5,589 C1123.91,589 1112.33,589 1100.74,589 " fill="none" id="CategoryPage-ChosenCardsPage" style="stroke:#A80036;stroke-width:1.0;"/><!--MD5=[0125d9fdec3cf5fb262ee66f6495e85e]
link ChosenCardsPage to AnimationPage--><path d="M992.78,612.25 C958.25,642.72 896.4,697.3 859.99,729.42 " fill="none" id="ChosenCardsPage-to-AnimationPage" style="stroke:#A80036;stroke-width:1.0;"/><polygon fill="#A80036" points="856.12,732.84,865.5098,729.8682,859.8633,729.5253,860.2062,723.8788,856.12,732.84" style="stroke:#A80036;stroke-width:1.0;"/><!--MD5=[faf7b902d562d468af1530cea27aa308]
link AnimationPage to MainPage--><path d="M828.88,779.06 C827.34,795.05 825.25,816.78 823.61,833.84 " fill="none" id="AnimationPage-to-MainPage" style="stroke:#A80036;stroke-width:1.0;"/><polygon fill="#A80036" points="823.12,838.98,827.9738,830.4103,823.6048,834.0036,820.0115,829.6346,823.12,838.98" style="stroke:#A80036;stroke-width:1.0;"/><!--MD5=[2923ad51e933845da5277295a1b992ee]
link AnimationsPreview to AnimationPage--><path d="M573.04,384.04 C549.93,398.97 528.22,420.42 538,445 C589.96,575.62 725.97,682.98 792.81,729.76 " fill="none" id="AnimationsPreview-to-AnimationPage" style="stroke:#A80036;stroke-width:1.0;stroke-dasharray:7.0,7.0;"/><polygon fill="#A80036" points="797.11,732.75,792.013,724.3226,793.0078,729.8913,787.4391,730.8861,797.11,732.75" style="stroke:#A80036;stroke-width:1.0;"/><!--MD5=[96b83ff2f34e505ba43af1a15a29873d]
link Card to CardContainer--><path d="M1282.61,361 C1292.43,361 1302.24,361 1312.06,361 " fill="none" id="Card-to-CardContainer" style="stroke:#A80036;stroke-width:1.0;"/><polygon fill="#A80036" points="1317.19,361,1308.19,357,1312.19,361,1308.19,365,1317.19,361" style="stroke:#A80036;stroke-width:1.0;"/><!--MD5=[d3c4e0b48aa7c14cd5fc9fc986e4559a]
link CardContainer to CategoryPage--><path d="M1369.92,384.08 C1335.59,426.02 1261.11,517.01 1224.37,561.89 " fill="none" id="CardContainer-to-CategoryPage" style="stroke:#A80036;stroke-width:1.0;stroke-dasharray:7.0,7.0;"/><polygon fill="#A80036" points="1221.15,565.83,1229.9476,561.4026,1224.3185,561.9621,1223.759,556.333,1221.15,565.83" style="stroke:#A80036;stroke-width:1.0;"/><!--MD5=[1473c72473802388d93f50368031cde2]
link FormFieldAnimationPage to AnimationsPreview--><path d="M496.85,361 C506.71,361 516.57,361 526.43,361 " fill="none" id="FormFieldAnimationPage-to-AnimationsPreview" style="stroke:#A80036;stroke-width:1.0;"/><polygon fill="#A80036" points="531.58,361,522.58,357,526.58,361,522.58,365,531.58,361" style="stroke:#A80036;stroke-width:1.0;"/><!--MD5=[135232066811bc48110397bd81dcd519]
link LinkButton to CategoryPage--><path d="M827.74,384.21 C840.19,392.07 854.55,400.76 868,408 C975.7,465.95 1013.23,459.91 1118,523 C1137.37,534.66 1157.53,549.92 1173.35,562.73 " fill="none" id="LinkButton-to-CategoryPage" style="stroke:#A80036;stroke-width:1.0;stroke-dasharray:7.0,7.0;"/><polygon fill="#A80036" points="1177.28,565.93,1172.8173,557.1502,1173.3994,562.777,1167.7726,563.3591,1177.28,565.93" style="stroke:#A80036;stroke-width:1.0;"/><!--MD5=[e963b33212feba22aa9d1c20b3939daa]
link LinkButton to ChosenCardsPage--><path d="M797.64,384.16 C801.41,401.95 808.69,426.85 822,445 C833.33,460.44 927.5,526.13 981.08,562.87 " fill="none" id="LinkButton-to-ChosenCardsPage" style="stroke:#A80036;stroke-width:1.0;stroke-dasharray:7.0,7.0;"/><polygon fill="#A80036" points="985.5,565.89,980.3497,557.4951,981.3798,563.0574,975.8175,564.0874,985.5,565.89" style="stroke:#A80036;stroke-width:1.0;"/><!--MD5=[ddb33243c335ebb6eecdd2d11fca629a]
link LinkButton to MainPage--><path d="M758.57,384.03 C694.05,424.14 564,505 564,505 C564,505 564,505 564,673 C564,770.91 687.01,823.33 762.83,846.34 " fill="none" id="LinkButton-to-MainPage" style="stroke:#A80036;stroke-width:1.0;stroke-dasharray:7.0,7.0;"/><polygon fill="#A80036" points="767.75,847.81,760.2702,841.4028,762.9589,846.3798,757.9819,849.0686,767.75,847.81" style="stroke:#A80036;stroke-width:1.0;"/><!--MD5=[fc753d10a99c3abed5e169e8f0b13756]
link LinkButton to NotFoundPage--><path d="M778.05,384.39 C759.69,413.09 734.12,464.14 751,506 C760,528.31 778.29,547.94 795.01,562.39 " fill="none" id="LinkButton-to-NotFoundPage" style="stroke:#A80036;stroke-width:1.0;stroke-dasharray:7.0,7.0;"/><polygon fill="#A80036" points="799.22,565.95,794.9348,557.0823,795.4036,562.7196,789.7662,563.1885,799.22,565.95" style="stroke:#A80036;stroke-width:1.0;"/><!--MD5=[e6338fb90a1024c249a17e566c5acbb4]
link LinkButton to AnimationsPreview--><path d="M737.25,361 C727.25,361 717.26,361 707.27,361 " fill="none" id="LinkButton-to-AnimationsPreview" style="stroke:#A80036;stroke-width:1.0;"/><polygon fill="#A80036" points="702.04,361,711.04,365,707.04,361,711.04,357,702.04,361" style="stroke:#A80036;stroke-width:1.0;"/><!--MD5=[a11a96387797e028c7f23f43df9bff13]
link LinkToPage to ChosenCardsPage--><path d="M1105.52,384.08 C1087.63,425.77 1048.94,515.92 1029.56,561.08 " fill="none" id="LinkToPage-to-ChosenCardsPage" style="stroke:#A80036;stroke-width:1.0;stroke-dasharray:7.0,7.0;"/><polygon fill="#A80036" points="1027.52,565.83,1034.7419,559.1334,1029.4896,561.2343,1027.3887,555.982,1027.52,565.83" style="stroke:#A80036;stroke-width:1.0;"/><!--MD5=[d48c9706fc140d96e4d3efcae7be1b5f]
link Logo to TopContainer--><path d="M81.46,337.91 C93.68,318.42 114.41,292.73 141.5,286.5 C179.89,277.67 812.11,277.67 850.5,286.5 C881.05,293.53 909.35,315.81 928.44,334.2 " fill="none" id="Logo-to-TopContainer" style="stroke:#A80036;stroke-width:1.0;"/><polygon fill="#A80036" points="932.13,337.81,928.5018,328.6538,928.5589,334.3104,922.9024,334.3675,932.13,337.81" style="stroke:#A80036;stroke-width:1.0;"/><!--MD5=[11dfa4582234e343a33cc756934e3fca]
link Logo to MainPage--><path d="M94.11,384.21 C136.81,422.22 219,496.48 219,505 C219,505 219,505 219,673 C219,786.15 611.36,839.13 762.56,855.35 " fill="none" id="Logo-to-MainPage" style="stroke:#A80036;stroke-width:1.0;stroke-dasharray:7.0,7.0;"/><polygon fill="#A80036" points="767.84,855.91,759.3119,850.9835,762.8679,855.3829,758.4685,858.9389,767.84,855.91" style="stroke:#A80036;stroke-width:1.0;"/><!--MD5=[fa016872930df1aef6c415b7be6874fe]
link Logo to NotFoundPage--><path d="M90.89,384.2 C100.37,392.73 112.03,401.87 124,408 C152.52,422.6 578.09,526.83 754.39,569.68 " fill="none" id="Logo-to-NotFoundPage" style="stroke:#A80036;stroke-width:1.0;stroke-dasharray:7.0,7.0;"/><polygon fill="#A80036" points="759.27,570.87,751.4713,564.855,754.4118,569.6875,749.5793,572.6281,759.27,570.87" style="stroke:#A80036;stroke-width:1.0;"/><!--MD5=[b9a65ff20f836705d42413be7cadf85f]
link TopContainer to CategoryPage--><path d="M977.43,384.08 C1024.01,426.19 1125.29,517.75 1174.72,562.43 " fill="none" id="TopContainer-to-CategoryPage" style="stroke:#A80036;stroke-width:1.0;stroke-dasharray:7.0,7.0;"/><polygon fill="#A80036" points="1178.47,565.83,1174.4926,556.82,1174.7671,562.4702,1169.1169,562.7447,1178.47,565.83" style="stroke:#A80036;stroke-width:1.0;"/><!--MD5=[7acd3f3dca98d6a96b385ab024e1f291]
link TopContainer to ChosenCardsPage--><path d="M959.35,384.08 C971.32,425.68 997.16,515.55 1010.18,560.8 " fill="none" id="TopContainer-to-ChosenCardsPage" style="stroke:#A80036;stroke-width:1.0;stroke-dasharray:7.0,7.0;"/><polygon fill="#A80036" points="1011.62,565.83,1012.9668,556.0737,1010.2332,561.0262,1005.2807,558.2926,1011.62,565.83" style="stroke:#A80036;stroke-width:1.0;"/><!--MD5=[b9deda733d05c28a85f3bf55c622d3a2]
link TopContainer to AnimationPage--><path d="M916.78,384.03 C861.58,418.46 760.8,485.01 742,523 C706.25,595.25 770.11,685.63 807.21,729.18 " fill="none" id="TopContainer-to-AnimationPage" style="stroke:#A80036;stroke-width:1.0;stroke-dasharray:7.0,7.0;"/><polygon fill="#A80036" points="810.49,733,807.6523,723.5688,807.229,729.2098,801.588,728.7864,810.49,733" style="stroke:#A80036;stroke-width:1.0;"/><!--MD5=[3a61d562a423cfe3c34a6c06523cde6e]
link Animations to AnimationsPreview--><path d="M617,119.4485 C617,119.7895 617,120.1319 617,120.4757 C617,125.9763 617,131.8248 617,137.9491 C617,150.1978 617,163.55 617,177.43 C617,232.95 617,296.915 617,332.48 " fill="none" id="Animations-to-AnimationsPreview" style="stroke:#A80036;stroke-width:1.0;stroke-dasharray:7.0,7.0;"/><polygon fill="#A80036" points="617,337.81,621,328.81,617,332.81,613,328.81,617,337.81" style="stroke:#A80036;stroke-width:1.0;"/><!--MD5=[62f3bca008ac22dfd1d7fb4b0a6f0163]
@startuml generealComponentDiagram

folder "Pages" {
component MainPage
component CategoryPage
component ChosenCardsPage
component AnimationPage
component NotFoundPage

MainPage - -> ChosenCardsPage 
CategoryPage - ChosenCardsPage
ChosenCardsPage - - -> AnimationPage
AnimationPage - -> MainPage
}

folder "Components"{
component AnimationsPreview
component Card
component CardContainer
component Character 
component FormFieldAnimationPage 
component LinkButton 
component LinkToPage
component Logo
component TopContainer

AnimationsPreview ..> AnimationPage
Card -> CardContainer
CardContainer ..> CategoryPage
FormFieldAnimationPage -> AnimationsPreview
LinkButton ..> CategoryPage
LinkButton ..> ChosenCardsPage
LinkButton ..> MainPage
LinkButton ..> NotFoundPage
LinkButton -> AnimationsPreview
LinkToPage ..> ChosenCardsPage
Logo -> TopContainer
Logo ...> MainPage
Logo ...> NotFoundPage
TopContainer ....> CategoryPage
TopContainer ....> ChosenCardsPage
TopContainer .....> AnimationPage
}

folder Animations {
    component [All the animation components]
   
   Animations .....> AnimationsPreview
    
}

@enduml

PlantUML version 1.2021.00(Sun Jan 10 11:25:05 CET 2021)
(GPL source distribution)
Java Runtime: OpenJDK Runtime Environment
JVM: OpenJDK 64-Bit Server VM
Default Encoding: UTF-8
Language: nb
Country: NO
--></g></svg>